HIERARCHY
ROOT Hips
{
	OFFSET 0.000000 100.481300 0.000000
	CHANNELS 6 Xposition Yposition Zposition Xrotation Yrotation Zrotation
	JOINT Spine
	{
		OFFSET -0.279200 12.230698 -2.892100
		CHANNELS 3 Xrotation Yrotation Zrotation
		JOINT Spine1
		{
			OFFSET -0.325700 14.269203 -3.374200
			CHANNELS 3 Xrotation Yrotation Zrotation
			JOINT Spine2
			{
				OFFSET -0.372300 16.307602 -0.352600
				CHANNELS 3 Xrotation Yrotation Zrotation
				JOINT Neck
				{
					OFFSET -0.418800 17.814194 8.416900
					CHANNELS 3 Xrotation Yrotation Zrotation
					JOINT Head
					{
						OFFSET 0.000000 7.031097 3.806800
						CHANNELS 3 Xrotation Yrotation Zrotation
						JOINT HeadTop_End
						{
							OFFSET 0.000000 24.646606 12.978600
							CHANNELS 3 Xrotation Yrotation Zrotation
							End Site
							{
								OFFSET 0.000000 27.854965 0.000000
							}
						}
					}
				}
				JOINT LeftShoulder
				{
					OFFSET 16.952999 14.495407 -7.737500
					CHANNELS 3 Xrotation Yrotation Zrotation
					JOINT LeftArm
					{
						OFFSET 9.308998 -2.777710 0.208600
						CHANNELS 3 Xrotation Yrotation Zrotation
						JOINT LeftForeArm
						{
							OFFSET 29.972298 0.000000 0.000000
							CHANNELS 3 Xrotation Yrotation Zrotation
							JOINT LeftHand
							{
								OFFSET 26.026505 0.000000 0.000000
								CHANNELS 3 Xrotation Yrotation Zrotation
								JOINT LeftHandThumb1
								{
									OFFSET 12.240501 -7.147949 9.207150
									CHANNELS 3 Xrotation Yrotation Zrotation
									JOINT LeftHandThumb2
									{
										OFFSET 4.138618 -2.389435 2.389433
										CHANNELS 3 Xrotation Yrotation Zrotation
										JOINT LeftHandThumb3
										{
											OFFSET 2.726913 -1.574387 1.574386
											CHANNELS 3 Xrotation Yrotation Zrotation
											JOINT LeftHandThumb4
											{
												OFFSET 3.941010 -2.275345 2.275342
												CHANNELS 3 Xrotation Yrotation Zrotation
												End Site
												{
													OFFSET -0.005798 5.087799 0.009903
												}
											}
										}
									}
								}
								JOINT LeftHandIndex1
								{
									OFFSET 24.424698 -1.985611 5.953459
									CHANNELS 3 Xrotation Yrotation Zrotation
									JOINT LeftHandIndex2
									{
										OFFSET 6.426697 0.000000 0.000000
										CHANNELS 3 Xrotation Yrotation Zrotation
										JOINT LeftHandIndex3
										{
											OFFSET 5.337898 0.000000 0.000000
											CHANNELS 3 Xrotation Yrotation Zrotation
											JOINT LeftHandIndex4
											{
												OFFSET 4.409401 0.000000 0.000000
												CHANNELS 3 Xrotation Yrotation Zrotation
												End Site
												{
													OFFSET 0.000000 4.409363 0.014373
												}
											}
										}
									}
								}
								JOINT LeftHandMiddle1
								{
									OFFSET 23.810104 0.000000 0.000000
									CHANNELS 3 Xrotation Yrotation Zrotation
									JOINT LeftHandMiddle2
									{
										OFFSET 7.176498 0.000000 0.000000
										CHANNELS 3 Xrotation Yrotation Zrotation
										JOINT LeftHandMiddle3
										{
											OFFSET 6.774902 0.000000 0.000000
											CHANNELS 3 Xrotation Yrotation Zrotation
											JOINT LeftHandMiddle4
											{
												OFFSET 5.403328 0.000000 0.000000
												CHANNELS 3 Xrotation Yrotation Zrotation
												End Site
												{
													OFFSET -0.027702 5.403244 0.017414
												}
											}
										}
									}
								}
								JOINT LeftHandRing1
								{
									OFFSET 22.908401 -0.839279 -6.020567
									CHANNELS 3 Xrotation Yrotation Zrotation
									JOINT LeftHandRing2
									{
										OFFSET 6.337502 0.000000 0.000000
										CHANNELS 3 Xrotation Yrotation Zrotation
										JOINT LeftHandRing3
										{
											OFFSET 5.779297 0.000000 0.000000
											CHANNELS 3 Xrotation Yrotation Zrotation
											JOINT LeftHandRing4
											{
												OFFSET 4.965698 0.000000 0.000000
												CHANNELS 3 Xrotation Yrotation Zrotation
												End Site
												{
													OFFSET 0.000000 4.965668 0.016186
												}
											}
										}
									}
								}
								JOINT LeftHandPinky1
								{
									OFFSET 20.037003 -1.530319 -10.950146
									CHANNELS 3 Xrotation Yrotation Zrotation
									JOINT LeftHandPinky2
									{
										OFFSET 5.254700 0.000000 0.000000
										CHANNELS 3 Xrotation Yrotation Zrotation
										JOINT LeftHandPinky3
										{
											OFFSET 4.810204 0.000000 0.000000
											CHANNELS 3 Xrotation Yrotation Zrotation
											JOINT LeftHandPinky4
											{
												OFFSET 3.647202 0.000000 0.000000
												CHANNELS 3 Xrotation Yrotation Zrotation
												End Site
												{
													OFFSET 0.000000 3.647186 0.011889
												}
											}
										}
									}
								}
							}
						}
					}
				}
				JOINT RightShoulder
				{
					OFFSET -15.141001 14.495407 -7.737500
					CHANNELS 3 Xrotation Yrotation Zrotation
					JOINT RightArm
					{
						OFFSET -9.308998 -2.777710 0.208500
						CHANNELS 3 Xrotation Yrotation Zrotation
						JOINT RightForeArm
						{
							OFFSET -29.972300 0.000000 0.000000
							CHANNELS 3 Xrotation Yrotation Zrotation
							JOINT RightHand
							{
								OFFSET -26.026505 0.000000 0.000000
								CHANNELS 3 Xrotation Yrotation Zrotation
								JOINT RightHandThumb1
								{
									OFFSET -12.240601 -7.148026 9.207092
									CHANNELS 3 Xrotation Yrotation Zrotation
									JOINT RightHandThumb2
									{
										OFFSET -4.138618 -2.389435 2.389433
										CHANNELS 3 Xrotation Yrotation Zrotation
										JOINT RightHandThumb3
										{
											OFFSET -2.726974 -1.574417 1.574421
											CHANNELS 3 Xrotation Yrotation Zrotation
											JOINT RightHandThumb4
											{
												OFFSET -3.941010 -2.275345 2.275343
												CHANNELS 3 Xrotation Yrotation Zrotation
												End Site
												{
													OFFSET 0.005814 5.087799 0.009927
												}
											}
										}
									}
								}
								JOINT RightHandIndex1
								{
									OFFSET -24.424698 -1.985657 5.953444
									CHANNELS 3 Xrotation Yrotation Zrotation
									JOINT RightHandIndex2
									{
										OFFSET -6.426697 0.000000 0.000000
										CHANNELS 3 Xrotation Yrotation Zrotation
										JOINT RightHandIndex3
										{
											OFFSET -5.337898 0.000000 0.000000
											CHANNELS 3 Xrotation Yrotation Zrotation
											JOINT RightHandIndex4
											{
												OFFSET -4.409401 0.000000 0.000000
												CHANNELS 3 Xrotation Yrotation Zrotation
												End Site
												{
													OFFSET 0.000000 4.409363 0.014408
												}
											}
										}
									}
								}
								JOINT RightHandMiddle1
								{
									OFFSET -23.810097 0.000000 0.000000
									CHANNELS 3 Xrotation Yrotation Zrotation
									JOINT RightHandMiddle2
									{
										OFFSET -7.176498 0.000000 0.000000
										CHANNELS 3 Xrotation Yrotation Zrotation
										JOINT RightHandMiddle3
										{
											OFFSET -6.774902 0.000000 0.000000
											CHANNELS 3 Xrotation Yrotation Zrotation
											JOINT RightHandMiddle4
											{
												OFFSET -5.403328 0.000000 0.000000
												CHANNELS 3 Xrotation Yrotation Zrotation
												End Site
												{
													OFFSET 0.027702 5.403244 0.017457
												}
											}
										}
									}
								}
								JOINT RightHandRing1
								{
									OFFSET -22.908302 -0.839325 -6.020576
									CHANNELS 3 Xrotation Yrotation Zrotation
									JOINT RightHandRing2
									{
										OFFSET -6.337502 0.000000 0.000000
										CHANNELS 3 Xrotation Yrotation Zrotation
										JOINT RightHandRing3
										{
											OFFSET -5.779297 0.000000 0.000000
											CHANNELS 3 Xrotation Yrotation Zrotation
											JOINT RightHandRing4
											{
												OFFSET -4.965698 0.000000 0.000000
												CHANNELS 3 Xrotation Yrotation Zrotation
												End Site
												{
													OFFSET 0.000000 4.965668 0.016226
												}
											}
										}
									}
								}
								JOINT RightHandPinky1
								{
									OFFSET -20.037003 -1.530334 -10.950259
									CHANNELS 3 Xrotation Yrotation Zrotation
									JOINT RightHandPinky2
									{
										OFFSET -5.254700 0.000000 0.000000
										CHANNELS 3 Xrotation Yrotation Zrotation
										JOINT RightHandPinky3
										{
											OFFSET -4.810204 0.000000 0.000000
											CHANNELS 3 Xrotation Yrotation Zrotation
											JOINT RightHandPinky4
											{
												OFFSET -3.647202 0.000000 0.000000
												CHANNELS 3 Xrotation Yrotation Zrotation
												End Site
												{
													OFFSET 0.000000 3.647186 0.011917
												}
											}
										}
									}
								}
							}
						}
					}
				}
			}
		}
	}
	JOINT LeftUpLeg
	{
		OFFSET 15.427100 -6.655098 0.678600
		CHANNELS 3 Xrotation Yrotation Zrotation
		JOINT LeftLeg
		{
			OFFSET 4.081073 -39.591068 13.024000
			CHANNELS 3 Xrotation Yrotation Zrotation
			JOINT LeftFoot
			{
				OFFSET -4.081074 -37.707932 -15.979700
				CHANNELS 3 Xrotation Yrotation Zrotation
				JOINT LeftToeBase
				{
					OFFSET 5.346399 -15.068900 20.645000
					CHANNELS 3 Xrotation Yrotation Zrotation
					JOINT LeftToe_End
					{
						OFFSET 2.754700 0.931300 11.300900
						CHANNELS 3 Xrotation Yrotation Zrotation
						End Site
						{
							OFFSET 0.000000 11.669021 0.000000
						}
					}
				}
			}
		}
	}
	JOINT RightUpLeg
	{
		OFFSET -15.569500 -6.655098 0.678600
		CHANNELS 3 Xrotation Yrotation Zrotation
		JOINT RightLeg
		{
			OFFSET -4.081825 -39.591045 13.023800
			CHANNELS 3 Xrotation Yrotation Zrotation
			JOINT RightFoot
			{
				OFFSET 4.081824 -37.707954 -15.979600
				CHANNELS 3 Xrotation Yrotation Zrotation
				JOINT RightToeBase
				{
					OFFSET -5.346400 -15.068900 20.645000
					CHANNELS 3 Xrotation Yrotation Zrotation
					JOINT RightToe_End
					{
						OFFSET -2.754700 0.931300 11.300900
						CHANNELS 3 Xrotation Yrotation Zrotation
						End Site
						{
							OFFSET 0.000000 11.669021 0.000000
						}
					}
				}
			}
		}
	}
}
MOTION
Frames: 5
Frame Time: 0.033333
1.300860 97.708237 0.018555 -3.374027 -4.858211 -4.754836 3.296882 1.483925 3.116831 1.073747 0.283884 1.356516 1.047336 0.309174 1.360537 6.037035 2.565562 -3.029403 -8.468175 15.535868 -5.376552 -0.000000 0.000001 -0.000000 1.080038 -17.152656 -12.037780 -4.969211 -0.201527 -67.687701 0.000001 -1.099207 0.000022 -74.286920 -8.132738 -9.739798 -5.489662 -14.511478 6.722208 6.434060 12.390617 20.101650 -14.760228 0.892534 8.812369 0.000000 -0.000001 -0.000002 4.286641 1.162321 11.626839 0.185295 1.463259 -14.434170 0.023228 0.521747 -5.098364 0.000003 -0.000000 0.000000 0.032455 2.532716 4.514981 0.259017 1.724342 -17.083714 0.292768 1.830524 -18.171997 0.000003 -0.000001 0.000001 0.162955 3.506213 -15.186707 0.716245 2.808872 -28.605420 0.571549 2.525820 -25.496980 -0.000001 -0.000000 -0.000000 1.049345 6.224030 -21.369258 0.338317 1.963821 -19.548129 0.305350 1.868399 -18.561802 -0.000000 -0.000001 0.000001 1.203038 15.277543 14.705018 13.792849 28.371559 57.190041 0.000003 7.029594 0.000008 -23.094379 0.524182 6.468575 -2.485683 1.788614 -4.960147 11.010803 -26.536946 -16.552214 -15.850917 -2.891776 -12.490477 -0.000001 0.000000 -0.000002 0.121744 1.040600 6.924655 0.177216 -1.273787 15.840165 0.029881 -0.527302 6.486990 0.000002 0.000001 0.000001 -0.160892 -2.184020 15.762045 0.195820 -1.337604 16.656567 0.220061 -1.416092 17.665451 -0.000000 -0.000003 0.000004 -0.049829 -2.894171 21.071359 0.306406 -1.662953 20.878427 0.224132 -1.428794 17.829268 0.000000 -0.000000 -0.000002 0.602177 -4.741954 27.063733 0.212364 -1.391689 17.351235 0.191017 -1.321477 16.449778 0.000001 0.000001 0.000003 -10.914558 14.705168 12.460195 12.862692 1.355778 4.011286 0.360896 0.569144 -8.287831 -4.926595 -0.000000 -0.000001 -0.000000 -0.000001 -0.000000 4.464639 -10.098837 2.306800 5.528855 -8.563316 -1.840569 -4.879578 -3.104009 4.971504 -7.179460 0.000005 -0.000001 0.000000 0.000001 0.000000 
1.303436 97.697464 -0.019588 -3.435356 -4.855931 -4.804171 3.288956 1.477564 3.099341 1.062166 0.276859 1.328575 1.035839 0.302848 1.332414 6.089222 2.546260 -3.040121 -8.372233 15.458415 -5.450552 -0.000000 0.000001 -0.000000 1.078396 -17.092656 -12.036243 -4.628842 -0.776472 -67.659287 -0.000002 -0.833987 -0.000005 -73.828608 -8.068080 -9.704602 -5.453285 -14.235194 6.585875 6.510096 12.611493 20.062265 -14.745928 0.932733 8.816047 -0.000001 0.000001 -0.000001 3.928023 0.813136 9.658557 0.188947 1.477279 -14.575658 0.024534 0.536194 -5.239768 -0.000001 -0.000001 -0.000001 0.049879 2.671831 1.987553 0.263878 1.740078 -17.244588 0.297602 1.845200 -18.323137 -0.000001 0.000000 0.000000 0.176656 3.570299 -15.742116 0.705369 2.788857 -28.382843 0.561755 2.505199 -25.273689 0.000001 -0.000000 -0.000000 1.057797 6.219478 -21.639347 0.339048 1.965858 -19.569095 0.306095 1.870589 -18.584480 -0.000001 -0.000002 0.000001 1.197310 15.301704 14.734586 13.375406 27.989055 57.591411 -0.000001 6.944256 -0.000005 -23.212799 0.692089 6.227841 -2.445486 1.693082 -4.934779 11.145098 -26.804020 -16.521307 -15.844625 -2.905608 -12.495018 0.000003 0.000000 -0.000001 0.118736 1.015359 7.073226 0.178200 -1.277263 15.884477 0.030294 -0.530889 6.531283 -0.000002 -0.000001 -0.000002 -0.161353 -2.190790 15.854732 0.196944 -1.341357 16.704657 0.221253 -1.419826 17.713570 -0.000000 0.000003 -0.000001 -0.047082 -2.905048 21.139673 0.307156 -1.664925 20.904448 0.224780 -1.430808 17.855247 0.000000 0.000002 -0.000003 0.599606 -4.740846 27.125779 0.214062 -1.397124 17.421067 0.192636 -1.326929 16.519646 -0.000001 -0.000001 -0.000001 -10.915597 14.716522 12.525042 12.907547 1.327849 3.999033 0.343510 0.572014 -8.288024 -4.916487 -0.000002 0.000002 0.000000 -0.000001 -0.000000 4.509613 -10.082899 2.355403 5.534090 -8.559048 -1.848428 -4.869336 -3.114337 4.989402 -7.163414 0.000001 -0.000002 0.000000 0.000002 0.000000 
1.300322 97.653511 -0.066106 -3.480840 -4.843087 -4.808341 3.285649 1.478041 3.062736 1.055913 0.278269 1.315947 1.029668 0.304619 1.319778 6.127127 2.528348 -3.071171 -8.231227 15.361621 -5.532217 0.000000 -0.000001 0.000000 1.073171 -17.087540 -12.073842 -4.150459 -1.637546 -67.620171 -0.000001 -0.531082 -0.000010 -73.143533 -7.754416 -9.585896 -5.264261 -13.402662 6.422185 6.754810 13.318963 19.933615 -14.732465 0.970571 8.819482 -0.000002 -0.000001 0.000001 3.316048 0.346617 6.212294 0.197929 1.511425 -14.920488 0.027852 0.571344 -5.584435 -0.000003 -0.000000 0.000001 0.073306 2.744945 -1.819825 0.267902 1.753000 -17.376819 0.301171 1.855906 -18.433122 0.000001 0.000001 -0.000002 0.193510 3.649195 -16.574135 0.682879 2.746871 -27.916843 0.541593 2.462068 -24.808509 0.000000 -0.000004 -0.000000 1.074559 6.211386 -22.177940 0.335982 1.957200 -19.479462 0.303277 1.862219 -18.498275 -0.000001 -0.000001 -0.000001 1.199910 15.358787 14.724150 13.022691 27.639416 58.010887 -0.000004 6.852943 -0.000000 -23.301639 0.820013 6.000216 -2.394438 1.573203 -4.907665 11.268438 -27.048184 -16.492602 -15.836547 -2.923401 -12.500839 -0.000001 -0.000000 0.000001 0.116565 1.019072 7.079726 0.179431 -1.281562 15.939276 0.030800 -0.535324 6.586114 -0.000000 0.000000 -0.000000 -0.158232 -2.196883 15.799365 0.198462 -1.346399 16.769281 0.222855 -1.424840 17.778243 -0.000002 0.000000 0.000001 -0.038341 -2.929631 21.174929 0.306997 -1.664494 20.898731 0.224631 -1.430344 17.849286 -0.000000 0.000000 -0.000001 0.610005 -4.750143 27.060827 0.210927 -1.387078 17.291799 0.189651 -1.316831 16.390378 0.000001 -0.000000 -0.000000 -10.972885 14.724454 12.551567 13.024107 1.273975 3.985246 0.312305 0.579744 -8.274288 -4.926677 0.000004 0.000003 0.000001 0.000001 0.000000 4.431268 -10.058865 2.374249 5.727050 -8.558765 -1.920963 -4.942864 -3.170873 5.071804 -7.162794 0.000009 0.000002 0.000001 -0.000001 -0.000000 
1.302029 97.613663 -0.111759 -3.527637 -4.842985 -4.770876 3.284291 1.483389 3.016381 1.049651 0.287160 1.301150 1.023476 0.313842 1.305159 6.188286 2.511042 -3.115665 -8.080950 15.259925 -5.608821 0.000000 -0.000000 -0.000000 1.061683 -17.045745 -12.149605 -3.551858 -2.723552 -67.624528 -0.000000 -0.214589 0.000029 -71.750420 -7.207557 -9.397544 -4.709561 -11.320699 6.238898 7.394065 15.104885 19.592375 -14.660250 1.175056 8.837767 0.000000 0.000000 0.000002 2.656112 0.015887 2.232150 0.209594 1.554539 -15.356746 0.032380 0.615805 -6.020449 -0.000002 0.000002 -0.000000 0.079684 2.816910 -5.995192 0.270352 1.760777 -17.456586 0.303097 1.861707 -18.492881 0.000003 0.000002 -0.000001 0.207306 3.722808 -17.735536 0.648059 2.680192 -27.181518 0.510666 2.394097 -24.078495 -0.000001 -0.000003 -0.000001 1.074252 6.129559 -23.060534 0.328804 1.936815 -19.268280 0.296780 1.842709 -18.297394 -0.000001 0.000000 0.000000 1.201335 15.462022 14.721552 12.779762 27.312776 58.389020 -0.000009 6.754126 -0.000001 -23.204668 0.906985 5.874411 -2.338011 1.430143 -4.837545 11.402193 -27.311719 -16.461022 -15.825970 -2.946743 -12.508457 -0.000000 0.000000 0.000001 0.113378 1.020171 7.109288 0.180652 -1.285836 15.994025 0.031314 -0.539754 6.640813 0.000000 0.000000 0.000002 -0.153410 -2.212396 15.781377 0.199361 -1.349379 16.807485 0.223811 -1.427802 17.816562 0.000001 -0.000000 -0.000004 -0.030657 -2.948586 21.157565 0.307912 -1.666879 20.930065 0.225407 -1.432757 17.880421 0.000000 -0.000002 0.000001 0.619356 -4.759346 27.034237 0.212686 -1.392719 17.364397 0.191325 -1.322503 16.462959 0.000000 -0.000003 0.000003 -10.965836 14.706654 12.513456 13.084040 1.281679 3.983706 0.285711 0.596532 -8.268660 -4.940228 -0.000003 -0.000002 0.000000 0.000001 0.000000 4.346011 -10.057250 2.339859 5.922254 -8.563908 -1.990238 -5.036929 -3.177949 5.158878 -7.192586 0.000001 -0.000000 0.000000 0.000001 0.000000 
1.313683 97.585243 -0.152021 -3.573846 -4.834818 -4.753130 3.284320 1.491655 2.999855 1.041752 0.301732 1.294404 1.015703 0.328665 1.298769 6.280792 2.491877 -3.146970 -7.944780 15.169881 -5.677654 -0.000000 -0.000001 0.000000 1.050037 -17.025833 -12.231813 -2.772263 -4.119953 -67.645647 -0.000001 -0.000002 -0.000009 -69.525493 -6.844200 -9.159361 -3.691498 -7.779495 6.085983 8.434867 17.824630 19.024175 -14.494735 1.642601 8.878828 -0.000000 0.000001 0.000000 2.039636 -0.220459 -1.042124 0.220545 1.593868 -15.755315 0.036800 0.656364 -6.418716 0.000002 -0.000002 -0.000002 0.057159 2.832492 -9.976697 0.272061 1.766236 -17.512277 0.304386 1.865548 -18.532571 -0.000001 -0.000003 0.000000 0.206210 3.757424 -19.116489 0.589257 2.562584 -25.895950 0.458824 2.274635 -22.805807 -0.000001 0.000001 -0.000001 1.071754 6.018687 -24.405128 0.313668 1.892984 -18.815385 0.282891 1.800152 -17.860096 0.000002 0.000001 -0.000000 1.192236 15.518485 14.768836 12.668281 27.099409 58.638888 -0.000007 6.646886 0.000007 -22.942723 0.845315 5.853811 -2.295105 1.318262 -4.769902 11.509904 -27.523012 -16.435387 -15.811572 -2.978570 -12.518868 0.000000 -0.000002 -0.000007 0.109303 1.028921 7.113176 0.181883 -1.290112 16.048530 0.031831 -0.544154 6.695321 -0.000001 0.000001 -0.000000 -0.144225 -2.244537 15.775056 0.199385 -1.349456 16.808462 0.223843 -1.427894 17.817693 0.000000 0.000002 0.000001 -0.026233 -2.958603 21.129798 0.309167 -1.670156 20.973161 0.226481 -1.436085 17.923354 0.000000 -0.000001 -0.000001 0.642795 -4.783342 27.000539 0.215446 -1.401504 17.477520 0.193948 -1.331331 16.576072 0.000000 -0.000001 0.000000 -10.961238 14.693274 12.490840 13.134623 1.265142 3.979334 0.267406 0.614188 -8.259708 -4.925830 -0.000006 0.000003 0.000000 0.000000 -0.000000 4.324055 -10.046407 2.333411 6.017611 -8.565448 -2.048049 -5.123322 -3.215353 5.198702 -7.197426 -0.000004 -0.000001 -0.000000 -0.000001 -0.000000 
